# xmcd
#
# Track frame offsets:
#	150
#	12549
#	30100
#	47357
#	67023
#	83544
#	106229
#	122158
#	139654
#	157704
#
# Disc length: 2296 seconds
#
# Revision: 0
# Processed by: cddbd v1.5.2PL0 Copyright (c) Steve Scherf et al.
# Submitted via: MuRip/1.0beta +https://www.muman.ch, 2018.11.03 17:24:22
#
DISCID=6c08f60a
DTITLE=Nebojša Buhin - Guitar Language
DYEAR=2007
DGENRE=Rock
TTITLE0=The Buzz
TTITLE1=Big Girl
TTITLE2=Secret
TTITLE3=Remember
TTITLE4=Lost and Found
TTITLE5=Metro
TTITLE6=Get Over It
TTITLE7=Blues For You
TTITLE8=Same Sky
TTITLE9=Guitar Language
EXTD=https://www.discogs.com/Neboj%C5%A1a-Buhin-Guitar-Language/release/5377558
EXTT0=
EXTT1=
EXTT2=
EXTT3=
EXTT4=
EXTT5=
EXTT6=
EXTT7=
EXTT8=
EXTT9=
PLAYORDER=
